<?xml version="1.0" encoding="UTF-8"?>
<svg version="1.1" xmlns="http://www.w3.org/2000/svg" width="2048" height="2048">
<rect width="2048" height="2048" fill="#FFFFFF"/>
<path d="M0 0 C1.331521 0.35384766 1.331521 0.35384766 2.68994141 0.71484375 C46.91271875 12.56785392 88.60177804 37.02143444 112.07421875 77.17578125 C123.04118814 96.49486969 131.09483062 117.08540217 139.4140625 137.63671875 C142.50947521 145.27350212 145.69985217 152.86803604 148.91943359 160.453125 C150.13217488 163.31153374 151.34166623 166.17130548 152.55078125 169.03125 C154.41665554 173.4445675 156.28400048 177.85725843 158.15234375 182.26953125 C160.00264362 186.64027366 161.84895391 191.01266278 163.69140625 195.38671875 C172.60640507 216.53748028 181.6784271 237.61555176 191.0625 258.5625 C195.74642409 269.02544118 200.1653046 279.58132825 204.51123047 290.18847656 C207.77522911 298.12393459 211.17012513 305.98631111 214.6875 313.8125 C220.54145009 326.83915797 226.12868148 339.97293577 231.6862793 353.12817383 C236.62613736 364.81472373 241.65724205 376.4594791 246.73028564 388.08880615 C248.79937493 392.83280228 250.86437721 397.57857651 252.9296875 402.32421875 C253.33347122 403.25190063 253.73725494 404.17958252 254.15327454 405.13537598 C255.39399647 407.98602013 256.63453714 410.8367431 257.875 413.6875 C258.52331284 415.17730377 258.52331284 415.17730377 259.1847229 416.69720459 C267.67972345 436.22286336 267.67972345 436.22286336 271.64453125 445.49609375 C271.91257568 446.1230162 272.18062012 446.74993866 272.45678711 447.39585876 C273.62768579 450.13695731 274.79532163 452.8793936 275.95849609 455.6237793 C278.61998173 461.87738024 281.383963 468.07878636 284.1875 474.26953125 C288.9284029 484.75248784 293.45880963 495.32127733 297.96749878 505.90576172 C304.47193433 521.1717707 311.00921039 536.41630654 317.80908203 551.55322266 C321.72332155 560.2975019 325.46360877 569.11102547 329.1875 577.9375 C333.2014547 587.45041282 337.25356688 596.93689338 341.53466797 606.33349609 C345.04091207 614.04147731 348.4271335 621.80093634 351.8125 629.5625 C356.22823461 639.6862238 360.68030522 649.79158211 365.1875 659.875 C368.97448454 668.35591253 372.65997432 676.87143873 376.25 685.4375 C381.06408606 696.92313146 386.101747 708.30171343 391.17889404 719.67288208 C395.14119682 728.5473991 399.0809587 737.4268058 402.875 746.375 C405.68801999 753.0087769 408.61441002 759.5786043 411.625 766.125 C416.12899247 775.92812533 420.39066286 785.82840773 424.625 795.75 C429.65919829 807.54237786 434.73079123 819.31030745 440 831 C442.14781794 835.76994265 444.2940339 840.54060041 446.4375 845.3125 C446.86292084 846.25958328 446.86292084 846.25958328 447.29693604 847.22579956 C451.51045406 856.61269322 455.62790654 866.03599326 459.65625 875.50390625 C462.40922975 881.97317051 465.20389138 888.42428863 468 894.875 C468.40265579 895.80466583 468.40265579 895.80466583 468.81344604 896.75311279 C472.25602151 904.70084832 475.71554436 912.64098309 479.19140625 920.57421875 C483.15483676 929.62181853 487.10020989 938.67711123 491.02294922 947.74243164 C491.6541487 949.20087783 492.28594276 950.6590669 492.91845703 952.11694336 C505.30622022 980.68316658 516.24932964 1009.22022725 515.078125 1040.80615234 C514.99472887 1043.14801992 514.95085027 1045.48912355 514.90625 1047.83203125 C514.59389953 1059.58121424 512.87692785 1070.61465569 510 1082 C509.68933594 1083.23363281 509.37867188 1084.46726562 509.05859375 1085.73828125 C498.02005966 1126.52081513 474.0273441 1162.0305029 440 1187 C439.4534375 1187.40202637 438.906875 1187.80405273 438.34375 1188.21826172 C399.1337557 1216.78924614 349.36954651 1230.09319438 301.14697266 1223.10571289 C297.41011577 1222.50409958 293.70722927 1221.76051791 290 1221 C288.80503906 1220.76869385 288.80503906 1220.76869385 287.5859375 1220.53271484 C259.53429335 1215.02021502 231.46010435 1202.82658066 209 1185 C208.47567383 1184.5884668 207.95134766 1184.17693359 207.41113281 1183.75292969 C192.23285497 1171.72398144 178.98734695 1157.94364078 168 1142 C167.60264648 1141.4313623 167.20529297 1140.86272461 166.79589844 1140.27685547 C164.02524978 1136.27886841 161.47322481 1132.18482055 159 1128 C158.57364258 1127.28908203 158.14728516 1126.57816406 157.70800781 1125.84570312 C148.43831393 1110.13594113 143.14879385 1093.37621706 138 1076 C137.50303606 1074.33276481 137.0057942 1072.66561243 136.50830078 1070.99853516 C133.77679166 1061.83481459 131.07193864 1052.66337424 128.37890625 1043.48828125 C125.26452856 1032.8821423 122.12952063 1022.28239713 118.95132446 1011.69519043 C118.41210431 1009.89565246 117.87503684 1008.09546764 117.34042358 1006.29455566 C114.58776423 997.02579852 111.68292539 987.84597085 108.35546875 978.765625 C108.07724274 978.00479111 107.79901672 977.24395721 107.51235962 976.46006775 C100.75402514 958.37623621 90.72455791 941.94243695 78.2902832 927.2265625 C77.76136475 926.60007812 77.23244629 925.97359375 76.6875 925.328125 C76.21699219 924.7805957 75.74648437 924.23306641 75.26171875 923.66894531 C73.90153434 921.86975401 72.94812766 920.0420355 72 918 C71.34 918 70.68 918 70 918 C69.360625 917.195625 68.72125 916.39125 68.0625 915.5625 C64.09177227 910.59909034 58.94656168 906.93568395 54 903 C53.23945312 902.3503125 52.47890625 901.700625 51.6953125 901.03125 C12.79441731 868.18758762 -39.55598693 858.98930066 -88.9921875 862.27734375 C-93.0321896 862.63626762 -97.01581678 863.2469598 -101 864 C-101.80566406 864.15065918 -102.61132812 864.30131836 -103.44140625 864.45654297 C-132.51518515 870.09473295 -160.73090564 880.23849409 -184 899 C-184.55913086 899.44778809 -185.11826172 899.89557617 -185.69433594 900.35693359 C-189.91652447 903.77483916 -193.98671047 907.33995845 -198 911 C-198.6098877 911.55252441 -199.21977539 912.10504883 -199.84814453 912.67431641 C-210.0058358 921.99589659 -217.98460978 932.24913444 -225.53271484 943.76416016 C-226.76678841 945.64463366 -228.02582093 947.50271095 -229.30078125 949.35546875 C-248.08670088 977.85434884 -255.74455536 1014.44546491 -265.0625 1046.8125 C-286.99628903 1122.99380834 -286.99628903 1122.99380834 -312 1154 C-312.71800781 1154.92296875 -313.43601562 1155.8459375 -314.17578125 1156.796875 C-335.78845395 1184.13868397 -364.48066407 1202.32166316 -397 1214 C-397.63808594 1214.23315918 -398.27617188 1214.46631836 -398.93359375 1214.70654297 C-407.84672741 1217.91235029 -416.90229725 1219.92857031 -426.1875 1221.75 C-427.25613281 1221.96092285 -428.32476563 1222.1718457 -429.42578125 1222.38916016 C-469.07102121 1229.81046659 -513.88568778 1222.35559618 -549.25341797 1202.94824219 C-550.96541686 1202.01877564 -552.70339069 1201.13767055 -554.44140625 1200.2578125 C-570.4134036 1192.07381386 -584.60036339 1179.90757353 -597 1167 C-598.2065625 1165.824375 -598.2065625 1165.824375 -599.4375 1164.625 C-607.21311835 1156.65973243 -613.96140551 1148.34655839 -620 1139 C-620.38188477 1138.41057617 -620.76376953 1137.82115234 -621.15722656 1137.21386719 C-635.70355002 1114.50890051 -644.03725086 1088.58836705 -648 1062 C-648.15082031 1061.00742188 -648.30164063 1060.01484375 -648.45703125 1058.9921875 C-651.04403261 1036.98542929 -649.22150784 1013.24727625 -643 992 C-642.73396973 991.08702148 -642.46793945 990.17404297 -642.19384766 989.23339844 C-636.35215609 969.66740472 -628.2865416 951.16717341 -620.01367188 932.54052734 C-618.14465825 928.33190519 -616.29447485 924.11531987 -614.453125 919.89453125 C-614.17121811 919.24846924 -613.88931122 918.60240723 -613.59886169 917.93676758 C-613.03436895 916.64302044 -612.46991054 915.34925832 -611.90548706 914.05548096 C-610.48841013 910.81030657 -609.06615201 907.56740448 -607.64453125 904.32421875 C-603.87326272 895.71757019 -600.11697285 887.10440377 -596.36264038 878.49035645 C-595.25666951 875.9528026 -594.15043307 873.41536464 -593.04418945 870.87792969 C-590.07495401 864.0659937 -587.10685969 857.25362431 -584.15625 850.43359375 C-579.43467624 839.52374856 -574.60915766 828.66482039 -569.72402954 817.82739258 C-565.3719158 808.16273586 -561.18778177 798.4351269 -557.08959961 788.65991211 C-553.38526333 779.84780807 -549.5228223 771.1123106 -545.62084961 762.38623047 C-541.57062656 753.31732352 -537.61193459 744.21149743 -533.67678833 735.09231567 C-529.86543899 726.26342223 -525.99140446 717.46483976 -522.0625 708.6875 C-517.58494149 698.67534663 -513.26201376 688.60508307 -509 678.5 C-504.26766208 667.27979509 -499.42931577 656.11644939 -494.45556641 645.00048828 C-490.87113321 636.98301884 -487.35639348 628.93771328 -483.875 620.875 C-478.68362329 608.85835878 -473.44888844 596.86115498 -468.1875 584.875 C-467.80703522 584.00807526 -467.42657043 583.14115051 -467.03457642 582.24795532 C-461.91779549 570.59320821 -456.76073942 558.95702548 -451.57519531 547.33273315 C-451.24100586 546.58355621 -450.90681641 545.83437927 -450.5625 545.0625 C-450.22992187 544.31694855 -449.89734375 543.57139709 -449.5546875 542.80325317 C-444.87335818 532.30109816 -440.30876065 521.75727614 -435.86279297 511.15283203 C-432.88017807 504.04630122 -429.81048727 496.9833877 -426.6875 489.9375 C-422.50637914 480.49864204 -418.44879475 471.01179915 -414.4375 461.5 C-408.65159732 447.78391272 -402.70219601 434.14367261 -396.70013428 420.52093506 C-392.09937909 410.07816451 -387.52917778 399.62597242 -383.0625 389.125 C-378.03160264 377.30256923 -372.83413344 365.55718726 -367.625 353.8125 C-360.44654916 337.62311679 -353.4313563 321.37462968 -346.5562439 305.05450439 C-343.232807 297.16993518 -339.86949881 289.3024745 -336.5 281.4375 C-336.031315 280.34302551 -336.031315 280.34302551 -335.55316162 279.22644043 C-330.76268923 268.04526545 -325.89674804 256.89858808 -321.00149536 245.76296997 C-316.43510479 235.36743077 -311.99979997 224.92222602 -307.63183594 214.44192505 C-303.62221225 204.82330431 -299.53390683 195.24251142 -295.375 185.6875 C-291.34881496 176.43624807 -287.35802654 167.17164153 -283.4375 157.875 C-266.44371826 117.58804416 -266.44371826 117.58804416 -258.96972656 101.140625 C-258.29717731 99.65600469 -257.63024265 98.16883306 -256.96777344 96.6796875 C-245.36998242 70.66674253 -229.78660621 50.14685795 -207 33 C-206.01515625 32.2471875 -205.0303125 31.494375 -204.015625 30.71875 C-177.03393652 11.0178346 -144.97570549 0.45479592 -112.4375 -5.3125 C-111.71093201 -5.44182922 -110.98436401 -5.57115845 -110.23577881 -5.70440674 C-73.35386779 -12.19960343 -36.05036149 -9.85029419 0 0 Z " fill="#000000" transform="translate(1092,414)"/>
<path d="M0 0 C5.84826281 5.64258996 10.6465928 11.6692344 15.1796875 18.40234375 C15.91058594 19.47355469 16.64148437 20.54476563 17.39453125 21.6484375 C31.17247081 42.2030909 40.4857173 65.13426681 45.1796875 89.40234375 C45.54900391 91.27792969 45.54900391 91.27792969 45.92578125 93.19140625 C52.44619073 134.47234353 43.43651735 180.77641186 18.703125 214.8984375 C16.27718391 218.13506449 13.73873481 221.27013443 11.1796875 224.40234375 C10.01566406 225.871875 10.01566406 225.871875 8.828125 227.37109375 C1.17785446 236.94050433 -7.16222148 244.87292518 -16.8203125 252.40234375 C-17.38137695 252.83981934 -17.94244141 253.27729492 -18.52050781 253.72802734 C-40.12821819 270.43569345 -64.06475945 280.84202053 -90.8203125 286.40234375 C-91.89410156 286.63566406 -92.96789063 286.86898438 -94.07421875 287.109375 C-137.49288141 295.14558553 -184.55249617 285.10544459 -221.109375 260.609375 C-224.79961785 258.01871 -228.33505017 255.26118616 -231.8203125 252.40234375 C-232.42697754 251.90702148 -233.03364258 251.41169922 -233.65869141 250.90136719 C-237.79768062 247.49456917 -241.83746602 243.99000507 -245.8203125 240.40234375 C-246.62984375 239.67789062 -247.439375 238.9534375 -248.2734375 238.20703125 C-264.94183662 222.43800618 -277.69835367 200.7141412 -285.8203125 179.40234375 C-286.27921875 178.20738281 -286.738125 177.01242187 -287.2109375 175.78125 C-293.59003342 157.93130991 -296.05476858 139.52477432 -296.0703125 120.65234375 C-296.07098724 119.91691345 -296.07166199 119.18148315 -296.07235718 118.42376709 C-296.0550406 106.52064352 -295.37909273 95.05279793 -292.8203125 83.40234375 C-292.65934082 82.63390137 -292.49836914 81.86545898 -292.33251953 81.07373047 C-286.03948102 51.82107597 -270.94612286 24.50966365 -250.31640625 2.97021484 C-249.30929232 1.91478311 -248.30938475 0.85243287 -247.31640625 -0.21630859 C-239.00542102 -9.15699443 -230.10885965 -16.06355303 -219.8203125 -22.59765625 C-219.21493652 -22.99436523 -218.60956055 -23.39107422 -217.98583984 -23.79980469 C-148.74707091 -69.14806236 -58.88211313 -54.23352525 0 0 Z " fill="#000000" transform="translate(1148.8203125,1349.59765625)"/>
</svg>
